<?xml version="1.0" standalone="no"?><!DOCTYPE svg PUBLIC "-//W3C//DTD SVG 1.1//EN" "http://www.w3.org/Graphics/SVG/1.1/DTD/svg11.dtd"><svg t="1761131921803" class="icon" viewBox="0 0 1024 1024" version="1.1" xmlns="http://www.w3.org/2000/svg" p-id="7906" xmlns:xlink="http://www.w3.org/1999/xlink" width="200" height="200"><path d="M0 0m146.285714 0l731.428572 0q146.285714 0 146.285714 146.285714l0 731.428572q0 146.285714-146.285714 146.285714l-731.428572 0q-146.285714 0-146.285714-146.285714l0-731.428572q0-146.285714 146.285714-146.285714Z" fill="#475072" p-id="7907"></path><path d="M809.545143 316.928c-12.726857 0-23.186286-11.117714-23.186286-24.722286v-48.054857c0-13.604571-10.459429-24.722286-23.186286-24.722286H169.472C156.745143 219.428571 146.285714 230.546286 146.285714 244.150857v511.707429c0 26.916571 20.48 48.713143 45.714286 48.713143h617.179429c37.814857 0 68.534857-32.768 68.534857-73.142858V341.723429c0-13.604571-10.459429-24.795429-23.186286-24.795429h-44.982857z m-68.900572 414.134857c0 13.604571-10.459429 24.795429-23.186285 24.795429H215.259429c-12.8 0-23.259429-11.190857-23.259429-24.795429v-438.125714c0-13.604571 10.459429-24.795429 23.259429-24.795429h502.198857c12.726857 0 23.186286 11.190857 23.186285 24.795429v438.125714zM237.714286 350.793143c0-13.385143 10.459429-24.356571 23.186285-24.356572h410.770286c12.8 0 23.186286 10.971429 23.186286 24.356572a23.917714 23.917714 0 0 1-23.186286 24.429714H260.900571a23.917714 23.917714 0 0 1-23.186285-24.429714zM512 448.365714c0-13.458286 10.459429-24.429714 23.259429-24.429714h136.484571c12.726857 0 23.186286 10.971429 23.186286 24.429714a23.917714 23.917714 0 0 1-23.186286 24.356572H535.259429A23.917714 23.917714 0 0 1 512 448.365714z m0 97.499429c0-13.385143 10.459429-24.356571 23.259429-24.356572h136.484571c12.726857 0 23.186286 10.971429 23.186286 24.356572a23.917714 23.917714 0 0 1-23.186286 24.429714H535.259429A23.917714 23.917714 0 0 1 512 545.865143z m0 97.572571c0-13.458286 10.459429-24.429714 23.259429-24.429714h90.697142c12.8 0 23.259429 10.971429 23.259429 24.429714a23.917714 23.917714 0 0 1-23.259429 24.356572h-90.697142A23.917714 23.917714 0 0 1 512 643.437714zM237.714286 448.658286c0-13.604571 10.459429-24.722286 23.186285-24.722286h182.198858c12.8 0 23.186286 11.117714 23.186285 24.722286v194.340571c0 13.604571-10.386286 24.722286-23.186285 24.722286h-182.125715c-12.8 0-23.259429-11.117714-23.259428-24.722286V448.658286z" fill="#FFFFFF" p-id="7908"></path></svg>