<?xml version="1.0" standalone="no"?><!DOCTYPE svg PUBLIC "-//W3C//DTD SVG 1.1//EN" "http://www.w3.org/Graphics/SVG/1.1/DTD/svg11.dtd"><svg t="1761132452805" class="icon" viewBox="0 0 1024 1024" version="1.1" xmlns="http://www.w3.org/2000/svg" p-id="21245" xmlns:xlink="http://www.w3.org/1999/xlink" width="200" height="200"><path d="M0 0m136.533333 0l750.933334 0q136.533333 0 136.533333 136.533333l0 750.933334q0 136.533333-136.533333 136.533333l-750.933334 0q-136.533333 0-136.533333-136.533333l0-750.933334q0-136.533333 136.533333-136.533333Z" fill="#3D93F2" p-id="21246"></path><path d="M491.741867 399.104h183.330133V273.066667H136.533333v381.934933h355.208534z" fill="#FFFFFF" p-id="21247"></path><path d="M260.096 620.629333h67.413333l-133.6832 118.408534-1.1264-118.408534z" fill="#FFFFFF" p-id="21248"></path><path d="M522.2912 429.380267h370.756267v264.567466H522.2912z" fill="#FFFFFF" p-id="21249"></path><path d="M750.114133 635.904h-67.413333l133.6832 118.408533 1.143467-118.408533z" fill="#FFFFFF" p-id="21250"></path><path d="M768.375467 567.1424a22.920533 22.920533 0 1 1 22.903466 22.903467 22.920533 22.920533 0 0 1-22.903466-22.903467z m-86.749867 0a22.903467 22.903467 0 1 1 22.8864 22.903467 22.920533 22.920533 0 0 1-22.8864-22.903467z m-93.166933 0a22.903467 22.903467 0 1 1 22.903466 22.903467 22.920533 22.920533 0 0 1-22.903466-22.903467z" fill="#3D93F2" p-id="21251"></path><path d="M377.019733 455.3216a22.920533 22.920533 0 1 1 22.903467 22.903467 22.920533 22.920533 0 0 1-22.903467-22.903467z m-86.749866 0a22.903467 22.903467 0 1 1 22.8864 22.903467 22.920533 22.920533 0 0 1-22.8864-22.903467z m-93.166934 0a22.903467 22.903467 0 1 1 22.903467 22.903467 22.920533 22.920533 0 0 1-22.903467-22.903467z" fill="#3D93F2" p-id="21252"></path></svg>