<?xml version="1.0" standalone="no"?><!DOCTYPE svg PUBLIC "-//W3C//DTD SVG 1.1//EN" "http://www.w3.org/Graphics/SVG/1.1/DTD/svg11.dtd"><svg t="1761132795762" class="icon" viewBox="0 0 1024 1024" version="1.1" xmlns="http://www.w3.org/2000/svg" p-id="27022" xmlns:xlink="http://www.w3.org/1999/xlink" width="200" height="200"><path d="M276.112 941.936c6.064-32.448 2.752-81.024-31.424-147.76C192.8 692.912 26.4 352.32 26.4 352.32l48.576-19.76 221.6 224 75.312 306.288-95.776 79.072" fill="#55A8FD" p-id="27023"></path><path d="M295.312 934.976c-99.088 20.8-274.976-400-274.976-400l81.84-33.376s175.648 297.824 180.688 338.176c4.912 40.336 12.448 95.2 12.448 95.2z" fill="#55A8FD" p-id="27024"></path><path d="M287.888 955.312c-27.664 0-58.064-20.224-92.464-61.6-27.76-33.248-58.624-80.912-92-141.6C47.312 649.824 2.736 543.536 2.288 542.512a19.2 19.2 0 0 1 0-15.088c2.048-4.8 5.824-8.688 10.624-10.624l78.864-32.112a19.44 19.44 0 0 1 25.488 10.736 19.44 19.44 0 0 1-10.752 25.488l-60.336 24.576c14.96 34.4 50.16 112.336 91.76 188 32.128 58.4 61.6 103.888 87.664 135.2 38.976 46.736 58.864 48.448 65.6 46.976a19.648 19.648 0 0 1 23.2 15.2 19.648 19.648 0 0 1-15.2 23.2 52.8 52.8 0 0 1-11.312 1.248z" fill="#FFFFFF" p-id="27025"></path><path d="M284.576 954.512a19.616 19.616 0 0 1-19.2-23.2c5.136-27.776-6.288-66.176-38.064-128.336C175.888 702.72 10.512 364.224 8.8 360.912a19.744 19.744 0 0 1 10.176-26.736L67.52 314.4a19.44 19.44 0 0 1 25.488 10.736 19.44 19.44 0 0 1-10.736 25.488l-29.152 11.888c35.664 72.912 164.8 336.464 208.928 422.752 36.56 71.424 48.56 115.76 41.712 153.248-1.712 9.376-9.952 16-19.2 16z" fill="#FFFFFF" p-id="27026"></path><path d="M964.8 661.824L295.312 934.976s65.376-59.44-6.736-200.24C236.688 633.488 70.288 292.912 70.288 292.912L739.776 19.776s187.424 316.688 238.4 432.448c64 145.488-13.376 209.6-13.376 209.6z" fill="#FFFFFF" p-id="27027"></path><path d="M295.088 954.512c-6.624 0-13.152-3.312-16.688-9.248a19.264 19.264 0 0 1 3.664-24.8c3.424-3.44 51.648-54.64-10.864-176.8C219.776 643.424 54.4 304.912 52.688 301.488a19.744 19.744 0 0 1 10.176-26.736L732.32 1.6a19.52 19.52 0 0 1 24.24 8.112c7.648 13.024 188.56 319.088 239.424 434.624 69.136 157.264-15.2 229.488-18.864 232.576-1.472 1.264-3.2 2.288-5.136 3.088L302.512 953.136a20.4 20.4 0 0 1-7.424 1.376zM97.12 303.088C132.8 376 261.936 639.52 306.08 725.824c40.112 78.4 40.448 134.512 30.848 170.976l617.264-251.776c10.624-10.736 57.936-67.312 6.16-184.912C916.576 360.8 768.8 107.68 731.536 44.224L97.136 303.088z" fill="#FFFFFF" p-id="27028"></path><path d="M416.8 745.264a10.912 10.912 0 0 1-14.512-6.752c-4.912-15.536-14.176-44.112-22.512-66.176-12.688-33.824-47.44-92.672-62.064-116.912a10.816 10.816 0 0 1 5.264-15.648l242.512-98.976a10.864 10.864 0 0 1 12.8 3.536c14.848 19.776 58.048 78.976 71.536 117.376 11.552 33.024 15.888 59.888 17.376 72.8a10.768 10.768 0 0 1-6.736 11.312L416.8 745.28z" fill="#55A8FD" p-id="27029"></path><path d="M370.176 411.664L300.464 371.2c-5.488-3.2-10.176-6.176-14.176-9.024l-0.352 0.112c3.44 5.712 7.2 12.112 11.088 19.312l26.976 49.376-30.624 12.8-64.352-117.488 31.2-13.152 66.64 38.4c0.8 0.576 1.824 1.152 3.072 1.84 1.264 0.688 2.4 1.488 3.664 2.16 1.264 0.8 2.4 1.488 3.536 2.288a14.24 14.24 0 0 1 2.752 2.064l0.336-0.112c-1.6-2.288-4-6.4-7.312-12.24l-28.8-52.672 30.624-12.8 64.352 117.472-28.912 12.128z m53.712-22.528L359.52 271.68l68.352-28.688 15.2 27.648-35.2 14.752 9.376 17.136 33.136-13.936 15.2 27.648-33.136 13.952 9.472 17.248 37.84-15.888 15.2 27.664-71.088 29.936z m214.4-90.048l-35.088 14.736-51.888-60.56c-1.488-1.728-4.576-6.288-9.376-13.6l-0.336 0.112c2.976 7.088 4.8 12.112 5.6 15.2l20.224 73.824-37.136 15.664-90.512-106.528 36.224-15.2 47.088 65.376c0.688 0.8 2.288 3.2 4.912 7.312l4.224 6.64 0.464-0.24a123.888 123.888 0 0 1-3.088-7.648 84.144 84.144 0 0 1-2.736-8.24l-20.688-75.76 36-15.088 52.224 63.776 4.8 6.512 4.464 6.512 0.336-0.112-1.376-2.976-5.248-11.776-28.352-73.136 32.576-13.712 36.688 128.912z m99.888-85.6c4.224 7.776 6.048 15.424 5.36 22.848-0.672 7.44-3.872 14.064-9.248 19.888-5.488 5.84-13.152 10.752-23.088 14.976-11.424 4.8-23.088 7.2-34.976 6.976l-17.6-32.24c6.512 1.728 13.264 2.528 20 2.288 6.752-0.112 12.576-1.136 17.376-3.2 3.664-1.488 6.064-3.424 7.312-5.6 1.264-2.16 1.152-4.688-0.336-7.312a11.36 11.36 0 0 0-4.24-4.448 20.336 20.336 0 0 0-6.736-2.176c-2.736-0.464-7.424-0.576-14.064-0.464-21.6 0.112-36.912-7.888-45.712-24.112-6.16-11.312-7.2-22.176-2.848-32.336 4.336-10.176 13.248-18.176 26.848-23.776 3.776-1.6 7.44-2.976 10.864-3.888 3.424-1.024 6.512-1.824 9.488-2.4 2.848-0.576 7.088-1.248 12.56-1.824l16.352 29.936c-12.224-1.488-22.752-0.448-31.664 3.312-3.648 1.488-6.16 3.552-7.648 5.952a6.752 6.752 0 0 0 0 7.424 9.648 9.648 0 0 0 6.048 4.912c2.752 0.8 7.664 1.376 14.752 1.488 14.048 0.112 25.024 2.176 32.912 6.064 7.776 3.648 13.936 9.6 18.288 17.712z" fill="#55A8FD" p-id="27030"></path><path d="M658.064 447.664a19.552 19.552 0 0 1-7.776-37.488l152.224-65.712a19.552 19.552 0 1 1 15.552 35.872l-152.24 65.728c-2.512 1.024-5.136 1.6-7.76 1.6zM696.464 524.8a19.552 19.552 0 0 1-7.776-37.488l152.224-65.712a19.552 19.552 0 1 1 15.552 35.888L704.224 523.2c-2.624 1.136-5.248 1.6-7.76 1.6zM724.8 602.064a19.552 19.552 0 0 1-7.776-37.488l152.24-65.712a19.552 19.552 0 1 1 15.536 35.888l-152.224 65.712c-2.64 1.024-5.264 1.6-7.776 1.6z" fill="#55A8FD" p-id="27031"></path></svg>