<?xml version="1.0" standalone="no"?><!DOCTYPE svg PUBLIC "-//W3C//DTD SVG 1.1//EN" "http://www.w3.org/Graphics/SVG/1.1/DTD/svg11.dtd"><svg t="1761131870688" class="icon" viewBox="0 0 1024 1024" version="1.1" xmlns="http://www.w3.org/2000/svg" p-id="5730" xmlns:xlink="http://www.w3.org/1999/xlink" width="200" height="200"><path d="M146.285714 0h731.428572a146.285714 146.285714 0 0 1 146.285714 146.285714v731.428572a146.285714 146.285714 0 0 1-146.285714 146.285714H146.285714a146.285714 146.285714 0 0 1-146.285714-146.285714V146.285714a146.285714 146.285714 0 0 1 146.285714-146.285714z m292.790857 773.705143l50.614858 99.108571a24.356571 24.356571 0 0 0 43.300571 0l50.249143-98.377143a288.329143 288.329143 0 0 0 214.601143-240.054857 29.988571 29.988571 0 0 0-29.622857-34.157714H564.370286a29.988571 29.988571 0 0 1-25.892572-44.909714l104.594286-181.028572a30.061714 30.061714 0 0 0-13.897143-42.496 285.915429 285.915429 0 0 0-123.099428-24.502857c-153.6 3.437714-279.552 130.56-281.453715 284.16a288.036571 288.036571 0 0 0 214.454857 282.258286z m356.717715-318.537143c14.628571 0 27.940571-9.947429 31.670857-24.868571A137.216 137.216 0 0 0 726.966857 264.777143a32.621714 32.621714 0 0 0-15.506286 63.341714 71.899429 71.899429 0 0 1 52.662858 86.747429 32.621714 32.621714 0 0 0 31.670857 40.374857z m113.737143 27.867429a32.621714 32.621714 0 0 0 31.597714-24.868572 254.390857 254.390857 0 0 0-186.368-307.2 32.621714 32.621714 0 1 0-15.506286 63.341714 189.147429 189.147429 0 0 1 138.605714 228.425143 32.621714 32.621714 0 0 0 31.670858 40.301715z" fill="#ABB0C6" p-id="5731"></path></svg>