<?xml version="1.0" standalone="no"?><!DOCTYPE svg PUBLIC "-//W3C//DTD SVG 1.1//EN" "http://www.w3.org/Graphics/SVG/1.1/DTD/svg11.dtd"><svg t="1761132340938" class="icon" viewBox="0 0 1024 1024" version="1.1" xmlns="http://www.w3.org/2000/svg" p-id="14874" xmlns:xlink="http://www.w3.org/1999/xlink" width="200" height="200"><path d="M0 0m128 0l768 0q128 0 128 128l0 768q0 128-128 128l-768 0q-128 0-128-128l0-768q0-128 128-128Z" fill="#722ED1" p-id="14875"></path><path d="M679.936 406.784h-26.56v60.384h26.56c17.632 0 31.968-13.536 31.968-30.24 0-16.64-14.336-30.144-32-30.144z m-305.44 13.696l-24.064 64.512h48.128l-24.064-64.512z m190.24 16.544c0-16.64-14.336-30.176-32-30.176h-26.496v60.416h26.496c17.664-0.096 32-13.632 32-30.24z" fill="#FFFFFF" p-id="14876"></path><path d="M803.968 330.464h-22.016l0.16-125.728A12.736 12.736 0 0 0 769.376 192H272a12.736 12.736 0 0 0-12.736 12.736l-0.16 125.728h-22.496A12.576 12.576 0 0 0 224 343.04v228.576c0 6.944 5.632 12.576 12.576 12.576h22.176l-0.224 202.56c0 7.072 5.696 12.8 12.736 12.8h497.312c7.04 0 12.768-5.728 12.768-12.8l0.224-202.56h22.336a12.576 12.576 0 0 0 12.576-12.576V343.04a12.608 12.608 0 0 0-12.48-12.576zM317.12 265.376c0-6.944 5.632-12.64 12.672-12.64h381.184c6.976 0 12.672 5.6 12.672 12.64v65.088H317.12V265.376z m153.6 237.344v-131.392h62.08c37.184 0 67.52 29.44 67.52 65.696s-30.336 65.696-67.52 65.696h-26.56v40.64h-35.52v-40.64z m-113.92-129.824l-0.096-0.16h35.712l-0.064 0.16 63.648 170.432h-35.552l-8.544-22.88h-74.656l-8.544 22.976H293.12l63.648-170.528z m163.232 394.24a27.84 27.84 0 1 1 0-55.68 27.84 27.84 0 0 1 0 55.68z m203.52-117.856a12.64 12.64 0 0 1-12.64 12.64h-381.12a12.64 12.64 0 0 1-12.672-12.64v-65.088h406.464v65.088z m22.272-198.176c-0.16 0.864-0.544 1.664-0.8 2.56a57.28 57.28 0 0 1-3.968 10.816c-0.224 0.48-0.544 0.896-0.768 1.344a63.776 63.776 0 0 1-6.912 10.784l-0.224 0.224c-2.848 3.648-6.176 6.976-9.728 9.92-11.808 9.792-26.912 16-43.616 16h-26.624v40.576h-35.52v-172h62.08c16.672 0 31.808 6.144 43.584 16 3.584 2.976 6.816 6.304 9.76 9.856 0.064 0.096 0.16 0.16 0.16 0.256 2.688 3.328 4.896 6.976 6.88 10.752 0.224 0.48 0.544 0.896 0.768 1.344 1.664 3.52 2.944 7.136 3.968 10.944 0.256 0.864 0.64 1.664 0.8 2.464a63.552 63.552 0 0 1 0.16 28.16z" fill="#FFFFFF" p-id="14877"></path></svg>